<?xml version="1.0" encoding="UTF-8"?>
<svg width="14px" height="12px" viewBox="0 0 14 12" version="1.1" xmlns="http://www.w3.org/2000/svg" xmlns:xlink="http://www.w3.org/1999/xlink">
    <!-- Generator: Sketch 54 (76480) - https://sketchapp.com -->
    <title>next (2)</title>
    <desc>Created with Sketch.</desc>
    <g id="Page-1" stroke="none" stroke-width="1" fill="none" fill-rule="evenodd">
        <g id="POST_DETAIL" transform="translate(-215.000000, -142.000000)" fill="#FFFFFF" fill-rule="nonzero">
            <g id="next-(2)" transform="translate(222.000000, 148.000000) scale(-1, 1) translate(-222.000000, -148.000000) translate(215.000000, 142.000000)">
                <path d="M13.7762265,5.43956688 L8.72033372,0.230318192 C8.57600972,0.081619889 8.3836536,0 8.17854962,0 C7.973218,0 7.78097571,0.0817371589 7.63665171,0.230318192 L7.17761489,0.703385193 C7.03340471,0.851848956 6.95395822,1.05015245 6.95395822,1.26159018 C6.95395822,1.47291064 7.03340471,1.67789852 7.17761489,1.82636229 L10.1271512,4.8719803 L0.756335151,4.8719803 C0.333834612,4.8719803 0,5.21276679 0,5.64819013 L0,6.31698069 C0,6.75240403 0.333834612,7.12755062 0.756335151,7.12755062 L10.1606144,7.12755062 L7.17772871,10.1901728 C7.03351853,10.3388711 6.95407204,10.5317802 6.95407204,10.7432179 C6.95407204,10.9544211 7.03351853,11.1501446 7.17772871,11.2987257 L7.63676553,11.7702682 C7.78108953,11.9189665 7.97333182,12 8.17866344,12 C8.38376742,12 8.57612354,11.917911 8.72044754,11.7692127 L13.7763403,6.56008131 C13.9210058,6.41091392 14.0005661,6.21178954 13.999997,6.00011727 C14.0004522,5.78774138 13.9210058,5.58849973 13.7762265,5.43956688 Z" id="Path"></path>
            </g>
        </g>
    </g>
</svg>