<?xml version="1.0" encoding="UTF-8"?>
<svg width="18px" height="18px" viewBox="0 0 18 18" version="1.1" xmlns="http://www.w3.org/2000/svg" xmlns:xlink="http://www.w3.org/1999/xlink">
    <!-- Generator: Sketch 54 (76480) - https://sketchapp.com -->
    <title>clock (6)</title>
    <desc>Created with Sketch.</desc>
    <g id="Page-1" stroke="none" stroke-width="1" fill="none" fill-rule="evenodd">
        <g id="POST_DETAIL-Copy-2" transform="translate(-1344.000000, -265.000000)" fill="#FFFFFF" fill-rule="nonzero">
            <g id="clock-(6)" transform="translate(1344.000000, 265.000000)">
                <path d="M9,0 C4.03720095,0 0,4.03720095 0,9 C0,13.9627991 4.03720095,18 9,18 C13.9627991,18 18,13.9627991 18,9 C18,4.03720095 13.9627991,0 9,0 Z M13.2802734,13.6551819 C13.134018,13.8014374 12.9420319,13.8750458 12.7500458,13.8750458 C12.5580597,13.8750458 12.3659363,13.8014374 12.2198181,13.6551819 L8.46977235,9.90527344 C8.32873535,9.76506043 8.25004579,9.57444764 8.25004579,9.37504579 L8.25004579,4.5 C8.25004579,4.08526611 8.58595275,3.75004579 9,3.75004579 C9.41404725,3.75004579 9.74995421,4.08526611 9.74995421,4.5 L9.74995421,9.0645447 L13.2802734,12.5947266 C13.5734711,12.8880615 13.5734711,13.3619843 13.2802734,13.6551819 L13.2802734,13.6551819 Z" id="Shape"></path>
            </g>
        </g>
    </g>
</svg>