<?xml version="1.0" encoding="UTF-8"?>
<svg width="18px" height="18px" viewBox="0 0 18 18" version="1.1" xmlns="http://www.w3.org/2000/svg" xmlns:xlink="http://www.w3.org/1999/xlink">
    <title>magnifying-glass</title>
    <g id="Page-1" stroke="none" stroke-width="1" fill-rule="evenodd">
        <g id="USER_PANEL_BLOG" transform="translate(-1538.000000, -140.000000)" fill-rule="nonzero">
            <g id="magnifying-glass" transform="translate(1538.000000, 140.000000)">
                <path d="M12.0206366,2.05940905 C9.27457627,-0.686469684 4.80515916,-0.686469684 2.0590988,2.05940905 C-0.686366267,4.80588303 -0.686366267,9.2744093 2.0590988,12.0208833 C4.50453907,14.4655666 8.31318727,14.7274757 11.0574618,12.8185155 C11.1152046,13.0917343 11.2473584,13.3524529 11.459876,13.5649564 L15.4590161,17.5638321 C16.0418024,18.1453893 16.9835469,18.1453893 17.5633568,17.5638321 C18.1455477,16.9816796 18.1455477,16.0399974 17.5633568,15.4596306 L13.5642166,11.4595645 C13.3528896,11.2488467 13.0915585,11.1161064 12.8183216,11.0583674 C14.7285986,8.31367913 14.4666722,4.50587807 12.0206366,2.05940905 Z M10.7580322,10.7583624 C8.70786275,12.8083963 5.37127739,12.8083963 3.32170318,10.7583624 C1.27272427,8.70832851 1.27272427,5.37255907 3.32170318,3.32252517 C5.37127739,1.27308653 8.70786275,1.27308653 10.7580322,3.32252517 C12.8082017,5.37255907 12.8082017,8.70832851 10.7580322,10.7583624 Z" id="Shape"></path>
            </g>
        </g>
    </g>
</svg>