<?xml version="1.0" encoding="UTF-8"?>
<svg width="15px" height="15px" viewBox="0 0 15 15" version="1.1" xmlns="http://www.w3.org/2000/svg" xmlns:xlink="http://www.w3.org/1999/xlink">
    <!-- Generator: Sketch 54 (76480) - https://sketchapp.com -->
    <title>Fill 1</title>
    <desc>Created with Sketch.</desc>
    <g id="Page-1" stroke="none" stroke-width="1" fill="none" fill-rule="evenodd">
        <g id="CROP" transform="translate(-619.000000, -240.000000)" fill="#FFFFFF">
            <g id="Group-2" transform="translate(619.000000, 240.000000)">
                <path d="M12.6390396,7.55682976 C12.6390396,4.73695253 10.3097148,2.44078734 7.44793811,2.44078734 C6.21962423,2.44078734 5.09351774,2.86560181 4.20525638,3.57147781 L6.77895116,5.76510365 L0,6.751127 L0.0139318415,0 L2.39343257,2.02880154 C3.73139126,0.840472023 5.50233211,0.112580479 7.44793811,0.112580479 C11.6197033,0.112580479 15,3.44696788 15,7.55682976 C15,11.6675459 11.6197033,15 7.44793811,15 C4.17552194,15 1.38995975,12.9492129 0.341892865,10.0826969 L2.75486955,9.73125757 C3.58551758,11.4652247 5.37502915,12.6718081 7.44793811,12.6718081 C10.3097148,12.6718081 12.6390396,10.3785354 12.6390396,7.55682976 Z" id="Fill-1"></path>
            </g>
        </g>
    </g>
</svg>